# xmcd
#
# Track frame offsets:
#	182
#	13235
#	26505
#	35992
#	51182
#	61825
#	74442
#	86075
#	98680
#	118952
#	131527
#	177960
#	210755
#	228667
#	249637
#	267325
#
# Disc length: 3828 seconds
#
# Revision: 2
# Processed by: cddbd v1.5.1PL0 Copyright (c) Steve Scherf et al.
# Submitted via: audiograbber 1.83.01
#
DISCID=e60ef210
DTITLE=Albert King - The Very Best Of Albert King
DYEAR=1999
DGENRE=Blues
TTITLE0=Let's Have A Natural Ball
TTITLE1=Don't Throw Your Love On Me So Strong
TTITLE2=C.O.D.
TTITLE3=Laundromat Blues
TTITLE4=Overall Junction
TTITLE5=Oh, Pretty Woman (Can't Make You Love Me)
TTITLE6=Crosscut Saw
TTITLE7=Born Under A Bad Sign
TTITLE8=Personal Manager
TTITLE9=Cold Feet
TTITLE10=Blues Power (Live)
TTITLE11=I'll Play The Blues For You (Parts 1 and 2)
TTITLE12=Breaking Up Somebody's Home
TTITLE13=Answer To The Laundromat Blues
TTITLE14=That's What The Blues Is All About
TTITLE15=Cadillac Assembly Line
EXTD=Rhino Records 1999
EXTT0=
EXTT1=
EXTT2=
EXTT3=
EXTT4=
EXTT5=
EXTT6=
EXTT7=
EXTT8=
EXTT9=
EXTT10=
EXTT11=
EXTT12=
EXTT13=
EXTT14=
EXTT15=
PLAYORDER=
